<svg width="58" height="52" viewBox="0 0 58 52" fill="none" xmlns="http://www.w3.org/2000/svg">
<g id="Frame" clipPath="url(#clip0_2491_9200)">
<g id="Vector" filter="url(#filter0_i_2491_9200)">
<path d="M27.6563 17.5112H5.23331C2.67068 17.5112 0.535156 19.6468 0.535156 22.2094V35.2361C0.535156 37.7987 2.67068 39.9342 5.23331 39.9342L3.95199 42.7104C3.52489 43.6714 4.69943 44.6324 5.55364 43.9917L10.7857 39.9342H27.6563C30.2189 39.9342 32.3545 37.7987 32.3545 35.2361V22.2094C32.2477 19.6468 30.2189 17.5112 27.6563 17.5112Z" fill="#4DE7E7"/>
</g>
<g id="Vector_2" filter="url(#filter1_i_2491_9200)">
<path d="M18.4716 24.6653H40.8946C43.4572 24.6653 45.5927 26.8008 45.5927 29.3634V42.4969C45.5927 45.0595 43.4572 47.1951 40.8946 47.1951L42.1759 49.9712C42.603 50.9322 41.4285 51.8932 40.5743 51.2526L35.3422 47.1951H18.4716C15.909 47.1951 13.7734 45.0595 13.7734 42.4969V29.3634C13.8802 26.8008 15.909 24.6653 18.4716 24.6653Z" fill="#621FE0"/>
</g>
<path id="Vector_3" d="M32.8876 3.73708L34.1689 6.2997C34.1689 6.40648 34.3825 6.62003 34.596 6.62003L37.3722 7.04714C37.9061 7.15391 38.0129 7.6878 37.6925 8.1149L35.6638 10.1436C35.557 10.2504 35.4502 10.464 35.4502 10.6775L35.9841 13.4537C36.0909 13.9876 35.557 14.3079 35.1299 14.0944L32.5673 12.8131C32.3537 12.7063 32.1402 12.7063 32.0334 12.8131L29.4708 14.0944C29.0437 14.3079 28.5098 13.9876 28.6166 13.4537L29.1504 10.6775C29.1504 10.464 29.1504 10.2504 28.9369 10.1436L26.9081 8.1149C26.5878 7.79457 26.8014 7.15391 27.2285 7.04714L30.0046 6.62003C30.2182 6.62003 30.325 6.51326 30.4318 6.2997L31.7131 3.73708C32.0334 3.30997 32.5673 3.30997 32.8876 3.73708Z" stroke="#1E2123" stroke-miterlimit="10"/>
<path id="Vector_4" d="M48.3681 0.854153L49.6494 3.41678C49.7562 3.63033 49.8629 3.73711 50.0765 3.73711L52.8527 4.16421C53.3866 4.27099 53.4933 4.80487 53.173 5.23198L51.1443 7.26072C51.0375 7.3675 50.9307 7.58105 50.9307 7.79461L51.4646 10.5708C51.5714 11.1047 51.0375 11.425 50.6104 11.2114L48.0477 9.82335C47.8342 9.71658 47.6206 9.71658 47.5139 9.82335L44.9512 11.1047C44.5241 11.3182 43.9902 10.9979 44.097 10.464L44.6309 7.68783C44.6309 7.47428 44.6309 7.26072 44.4174 7.15395L42.3886 5.1252C42.0683 4.80487 42.2818 4.16421 42.7089 4.05744L45.4851 3.63033C45.6987 3.63033 45.8054 3.52356 45.9122 3.31001L47.1935 0.747377C47.5139 0.427049 48.0477 0.427049 48.3681 0.854153Z" stroke="#1E2123" stroke-miterlimit="10"/>
<path id="Vector_5" d="M51.786 16.0165L53.0674 18.5791C53.1741 18.7927 53.2809 18.8995 53.4945 18.8995L56.2706 19.3266C56.8045 19.4333 56.9113 19.9672 56.591 20.3943L54.5622 22.4231C54.4554 22.4231 54.3487 22.6366 54.4554 22.8502L54.9893 25.6264C55.0961 26.1602 54.5622 26.4806 54.1351 26.267L51.5725 24.9857C51.3589 24.8789 51.1454 24.8789 51.0386 24.9857L48.476 26.267C48.0489 26.4806 47.515 26.1602 47.6218 25.6264L48.1556 22.8502C48.1556 22.6366 48.1557 22.4231 47.9421 22.3163L45.8066 20.2876C45.4862 19.9672 45.6998 19.3266 46.1269 19.2198L48.9031 18.7927C49.1166 18.7927 49.2234 18.6859 49.3302 18.4724L50.6115 15.9097C50.9318 15.5894 51.5725 15.5894 51.786 16.0165Z" stroke="#1E2123" stroke-miterlimit="10"/>
</g>
<defs>
<filter id="filter0_i_2491_9200" x="0.535156" y="17.5112" width="31.8193" height="29.6879" filterUnits="userSpaceOnUse" colorInterpolationFilters="sRGB">
<feFlood floodOpacity="0" result="BackgroundImageFix"/>
<feBlend mode="normal" in="SourceGraphic" in2="BackgroundImageFix" result="shape"/>
<feColorMatrix in="SourceAlpha" type="matrix" values="0 0 0 0 0 0 0 0 0 0 0 0 0 0 0 0 0 0 127 0" result="hardAlpha"/>
<feOffset dy="3"/>
<feGaussianBlur stdDeviation="1.5"/>
<feComposite in2="hardAlpha" operator="arithmetic" k2="-1" k3="1"/>
<feColorMatrix type="matrix" values="0 0 0 0 0 0 0 0 0 0 0 0 0 0 0 0 0 0 0.25 0"/>
<feBlend mode="normal" in2="shape" result="effect1_innerShadow_2491_9200"/>
</filter>
<filter id="filter1_i_2491_9200" x="13.7734" y="24.6653" width="31.8193" height="29.7947" filterUnits="userSpaceOnUse" colorInterpolationFilters="sRGB">
<feFlood floodOpacity="0" result="BackgroundImageFix"/>
<feBlend mode="normal" in="SourceGraphic" in2="BackgroundImageFix" result="shape"/>
<feColorMatrix in="SourceAlpha" type="matrix" values="0 0 0 0 0 0 0 0 0 0 0 0 0 0 0 0 0 0 127 0" result="hardAlpha"/>
<feOffset dy="3"/>
<feGaussianBlur stdDeviation="1.5"/>
<feComposite in2="hardAlpha" operator="arithmetic" k2="-1" k3="1"/>
<feColorMatrix type="matrix" values="0 0 0 0 0 0 0 0 0 0 0 0 0 0 0 0 0 0 0.25 0"/>
<feBlend mode="normal" in2="shape" result="effect1_innerShadow_2491_9200"/>
</filter>
<clipPath id="clip0_2491_9200">
<rect width="57.3388" height="52" fill="white"/>
</clipPath>
</defs>
</svg>
